# xmcd
#
# Track frame offsets:
#	150
#	15077
#	29769
#	47562
#	67357
#	87953
#	102182
#	121514
#	136808
#	151351
#	170889
#
# Disc length: 2553 seconds
#
# Revision: 1
# Processed by: cddbd v1.5.2PL0 Copyright (c) Steve Scherf et al.
# Submitted via: audiograbber 1.83.01
#
DISCID=8a09f70b
DTITLE=Mikael Gabriel - Pohjosen Poika
DYEAR=2011
DGENRE=Rap
TTITLE0=K‰‰nn‰ P‰‰
TTITLE1=Pohjosen Poika
TTITLE2=S‰ Olit Oikees
TTITLE3=Graindaamaan (feat. Tuomas Kauhanen)
TTITLE4=Historiaan (feat. Uniikki)
TTITLE5=Rakastu R‰pp‰riin
TTITLE6=Nappulaliiga (feat. Greedy and Mike)
TTITLE7=Syd‰met Yhteen
TTITLE8=Mit‰ Jos (feat. Timo Pieni Huijaus)
TTITLE9=Kuule Mua (feat. Kristiina Wheeler)
TTITLE10=P‰‰st‰k‰‰ Must Irti
EXTD=
EXTT0=
EXTT1=
EXTT2=
EXTT3=
EXTT4=
EXTT5=
EXTT6=
EXTT7=
EXTT8=
EXTT9=
EXTT10=
PLAYORDER=
